# xmcd
#
# Track frame offsets:
#	150
#	16625
#	34490
#	50762
#	64380
#	78117
#	93362
#	106104
#	126540
#	142180
#	156652
#	174597
#
# Disc length: 2544 seconds
#
# Revision: 0
# Processed by: cddbd v1.5.1PL0 Copyright (c) Steve Scherf et al.
# Submitted via: dBpowerAMP V4.0
#
DISCID=a909ee0c
DTITLE=Alabama - Country Legends
DYEAR=1900
DGENRE=Country
TTITLE0=Mountain Music
TTITLE1=Dixieland Delight
TTITLE2=Feels So Right
TTITLE3=How Do You Fall In love
TTITLE4=Tennessee River
TTITLE5=If You're Gonna Play In Texas (You Gotta Have A Fiddle In The Band)
TTITLE6=I'm In A Hurry (And Don't Know Why)
TTITLE7=The Closer You Get
TTITLE8=Down Home
TTITLE9=Old Flame
TTITLE10=Lady Down On Love
TTITLE11=Jukebox In My Mind
EXTD=
EXTT0=
EXTT1=
EXTT2=
EXTT3=
EXTT4=
EXTT5=
EXTT6=
EXTT7=
EXTT8=
EXTT9=
EXTT10=
EXTT11=
PLAYORDER=
